# xmcd
#
# Track frame offsets: 
#        150
#        7617
#        22687
#        36479
#        48826
#        58031
#        69605
#        79175
#        85102
#        102615
#        109953
#        118877
#        128000
#        141658
#        147789
#        155649
#        165393
#        175333
#        184306
#        196864
#        201490
#        209369
#        215075
#        221607
#        224351
#        238072
#        251790
#
# Disc length: 3420 seconds
#
# Revision: 2
# Processed by: cddbd v1.5.2PL0 Copyright (c) Steve Scherf et al.
# Submitted via: ExactAudioCopyFreeDBPlugin 1.0
#
DISCID=9e0d5a1b
DTITLE=BCPD - Brass Cocktail 2
DYEAR=2004
DGENRE=Instrumental
TTITLE0=Muskrat Ramble
TTITLE1=Welch ein Freund ist unser Jesus
TTITLE2=Floral Dance
TTITLE3=Largo
TTITLE4=Peacherine Rag
TTITLE5=Swing Guitar
TTITLE6=Wachet auf, ruft uns die Stimme
TTITLE7=Allegro
TTITLE8=Wo ein Mensch vertrauen gibt
TTITLE9=Schöpfer der ganzen Welt
TTITLE10=Herzlich lieb hab ich dich, o Herr
TTITLE11=The Strenuous Life
TTITLE12=Minor Swing
TTITLE13=Was Gott tut, das ist wohlgetan
TTITLE14=Marsch
TTITLE15=Miniatur
TTITLE16=Ständchen
TTITLE17=Joy Song
TTITLE18=Ein Licht geht uns auf
TTITLE19=Suite aus "Orpheus und Euridike": Overtüre
TTITLE20=Air
TTITLE21=Menuett 1
TTITLE22=Menuett 2
TTITLE23=Overtüre
TTITLE24=Der Himmel erfüllt dein Herz
TTITLE25=Abendfrieden
TTITLE26=Bonustrack
EXTD=
EXTT0=
EXTT1=
EXTT2=
EXTT3=
EXTT4=
EXTT5=
EXTT6=
EXTT7=
EXTT8=
EXTT9=
EXTT10=
EXTT11=
EXTT12=
EXTT13=
EXTT14=
EXTT15=
EXTT16=
EXTT17=
EXTT18=
EXTT19=
EXTT20=
EXTT21=
EXTT22=
EXTT23=
EXTT24=
EXTT25=
EXTT26=
PLAYORDER=
